<svg width="289" height="50" viewBox="0 0 289 50" fill="none" xmlns="http://www.w3.org/2000/svg">
<path d="M62.2772 30.0382C62.3969 35.2635 58.9815 40.5475 51.6421 40.5475H44.542V19.9985H51.6421C58.7421 19.9985 62.1575 24.989 62.2772 30.0382ZM46.158 21.4957V39.021H51.6421C57.8742 39.021 60.7509 34.4415 60.6611 30.0382C60.5714 25.7522 57.6947 21.4957 51.6421 21.4957H46.158Z" fill="white"/>
<path d="M84.2397 32.3279L76.0586 20.0279V19.9985H77.9477L85.0478 30.8014L92.1777 19.9985H94.0669V20.0279L85.8558 32.3279V40.5475H84.2397V32.3279Z" fill="white"/>
<path d="M111.207 19.9985L125.317 36.9955V19.9985H126.907V40.5475H126.279L112.138 23.5799V40.5475H110.519V19.9985H111.207Z" fill="white"/>
<path d="M161.753 40.5475L159.445 35.4983H146.921L144.643 40.5475H142.903L152.311 19.9985H154.077L163.485 40.5475H161.746H161.753ZM158.817 34.0305L153.183 21.525L147.549 34.0305H158.817Z" fill="white"/>
<path d="M197.646 22.2883L189.618 34.3241H189.079L180.988 22.2883V40.5475H179.372V19.9985H181.291L189.319 31.9756L197.257 19.9985H199.236V40.5475H197.646V22.2883Z" fill="white"/>
<path d="M217.36 40.5475V19.9985H218.95V40.5475H217.36Z" fill="white"/>
<path d="M254.364 37.7C252.265 39.7549 249.478 40.7823 246.725 40.7823C239.655 40.7823 235.97 35.9386 235.94 30.3904C235.88 24.9009 239.535 19.7637 246.725 19.7637C249.482 19.7637 252.269 20.7911 254.364 22.846L253.256 23.7854C251.461 22.0241 249.093 21.1727 246.725 21.1727C240.612 21.1727 237.466 25.4 237.496 30.3317C237.556 35.146 240.672 39.3145 246.725 39.3145C249.093 39.3145 251.491 38.4339 253.286 36.7019L254.364 37.7Z" fill="white"/>
<path d="M285.555 23.9616C284.028 21.5545 281.571 21.2022 279.203 21.1729C276.745 21.1729 272.851 22.0535 272.851 25.3414C272.851 27.954 275.727 28.5705 279.263 29.2163C283.306 29.9796 287.504 30.6841 287.504 35.1168C287.474 39.755 282.712 40.8705 279.203 40.8705C275.937 40.8705 272.222 39.5495 270.603 36.4084L272.039 35.7039C273.326 38.1991 276.621 39.4321 279.199 39.4321C281.776 39.4321 285.88 38.7275 285.88 35.0874C285.91 32.0051 282.435 31.3299 278.989 30.6841C275.155 29.9502 271.231 29.187 271.231 25.4001C271.141 21.0554 275.754 19.7051 279.199 19.7051C282.195 19.7051 284.803 20.1748 286.868 23.1984L285.551 23.9616H285.555Z" fill="white"/>
<path d="M46.5658 2.20166V10.6854H51.96V12.4761H44.5869V2.20166H46.5658Z" fill="white"/>
<path d="M65.2919 10.5387H59.8079L58.9101 12.4761H56.7666L61.4725 2.20166H63.631L68.3369 12.4761H66.1785L65.2956 10.5387H65.2919ZM62.5499 4.3593L60.6009 8.73329H64.4951L62.5462 4.3593H62.5499Z" fill="white"/>
<path d="M73.6981 2.20166H81.7596V3.11168L76.3205 10.6414H81.7596V12.4761H73.5635V11.3606L78.8829 4.02171H73.6981V2.20166Z" fill="white"/>
<path d="M91.8708 6.44355L94.6577 2.20166H97.0406V2.28973L92.8583 8.23425V12.4761H90.8794V8.23425L86.8506 2.28973V2.20166H89.2036L91.8708 6.44355Z" fill="white"/>
<path d="M20.3759 32.4746H16.6351C15.3955 32.4746 14.3906 33.4603 14.3906 34.6763V38.3457C14.3906 39.5617 15.3955 40.5474 16.6351 40.5474H20.3759C21.6155 40.5474 22.6204 39.5617 22.6204 38.3457V34.6763C22.6204 33.4603 21.6155 32.4746 20.3759 32.4746Z" fill="white"/>
<path d="M34.7675 32.4746H31.0267C29.7871 32.4746 28.7822 33.4603 28.7822 34.6763V38.3457C28.7822 39.5617 29.7871 40.5474 31.0267 40.5474H34.7675C36.0071 40.5474 37.012 39.5617 37.012 38.3457V34.6763C37.012 33.4603 36.0071 32.4746 34.7675 32.4746Z" fill="white"/>
<path d="M27.5693 17.3381H23.8285C22.5889 17.3381 21.584 18.3239 21.584 19.5398V23.2093C21.584 24.4252 22.5889 25.4109 23.8285 25.4109H27.5693C28.8089 25.4109 29.8138 24.4252 29.8138 23.2093V19.5398C29.8138 18.3239 28.8089 17.3381 27.5693 17.3381Z" fill="white"/>
<path d="M5.9853 32.4746H2.24449C1.00489 32.4746 0 33.4603 0 34.6763V38.3457C0 39.5617 1.00489 40.5474 2.24449 40.5474H5.9853C7.22489 40.5474 8.22978 39.5617 8.22978 38.3457V34.6763C8.22978 33.4603 7.22489 32.4746 5.9853 32.4746Z" fill="white"/>
<path d="M20.3759 2.20166H16.6351C15.3955 2.20166 14.3906 3.18738 14.3906 4.40333V8.07279C14.3906 9.28874 15.3955 10.2745 16.6351 10.2745H20.3759C21.6155 10.2745 22.6204 9.28874 22.6204 8.07279V4.40333C22.6204 3.18738 21.6155 2.20166 20.3759 2.20166Z" fill="white"/>
<path d="M18.5059 6.23804L25.6994 21.3745" stroke="white" stroke-width="5" stroke-miterlimit="10"/>
<path d="M25.6992 21.3745L32.8965 36.511" stroke="white" stroke-width="5" stroke-miterlimit="10"/>
<path d="M25.6994 21.3745L18.5059 36.511" stroke="white" stroke-width="5" stroke-miterlimit="10"/>
<path d="M18.5061 6.23804L4.11523 36.511" stroke="white" stroke-width="5" stroke-miterlimit="10"/>
</svg>
