<svg width="181" height="60" viewBox="0 0 181 60" fill="none" xmlns="http://www.w3.org/2000/svg">
<g clip-path="url(#clip0_229_4453)">
<path fill-rule="evenodd" clip-rule="evenodd" d="M18.6527 32.1776H36.428C37.3375 32.1377 38.1967 31.7489 38.8272 31.0919C39.4577 30.4349 39.811 29.5601 39.8137 28.6494C39.8137 24.6808 39.8899 20.8534 39.8899 16.9412C39.8884 16.0893 40.2247 15.2715 40.825 14.6673C41.4253 14.063 42.2407 13.7216 43.0923 13.7178H54.4035C55.2547 13.7208 56.0699 14.0612 56.6706 14.6643C57.2714 15.2674 57.6087 16.0841 57.6087 16.9356V28.2514C57.6072 29.1016 57.2692 29.9166 56.6685 30.5181C56.0678 31.1195 55.2534 31.4585 54.4035 31.4607H44.4861C43.6434 31.5814 42.8724 32.0015 42.3139 32.6441C41.7554 33.2868 41.4468 34.1091 41.4445 34.9607V54.9729C41.4378 56.308 40.9032 57.5862 39.9574 58.5282C39.0116 59.4701 37.7315 59.9993 36.3969 60H18.6527C17.3191 59.9955 16.0414 59.4636 15.0984 58.5202C14.1554 57.5768 13.6237 56.2986 13.6192 54.9645V36.547C13.617 35.63 13.2513 34.7512 12.6023 34.1035C11.9533 33.4559 11.074 33.0922 10.1573 33.0922H2.46314C1.81007 33.0899 1.18444 32.8292 0.72291 32.367C0.261384 31.9047 0.0014872 31.2785 0 30.6252V21.9316C0.00445599 21.2802 0.265663 20.6569 0.726869 20.1971C1.18808 19.7373 1.81202 19.4782 2.46314 19.4759H10.572C11.3795 19.4737 12.1533 19.1518 12.7243 18.5806C13.2952 18.0094 13.617 17.2353 13.6192 16.4275V3.5226C13.6222 2.58927 13.9941 1.69501 14.6538 1.03504C15.3136 0.375064 16.2075 0.00297717 17.1404 0L29.5549 0C30.4878 0.00297717 31.3817 0.375064 32.0415 1.03504C32.7012 1.69501 33.0731 2.58927 33.0761 3.5226V15.942C33.0761 16.8768 32.7058 17.7736 32.0464 18.4359C31.387 19.0982 30.4921 19.4722 29.5577 19.4759H16.6664C15.8589 19.4782 15.0852 19.8001 14.5142 20.3713C13.9432 20.9425 13.6215 21.7165 13.6192 22.5243V28.7341C13.6244 29.6477 13.9903 30.5223 14.6372 31.1673C15.284 31.8123 16.1594 32.1754 17.0727 32.1776H18.6527Z" fill="white"/>
<path opacity="0.5" d="M29.3239 3.75659H17.375V15.7103H29.3239V3.75659Z" fill="black"/>
<path opacity="0.5" d="M53.8534 17.4773H43.6396V27.6951H53.8534V17.4773Z" fill="black"/>
<path d="M9.88973 23.2244H3.75586V29.3353H9.88973V23.2244Z" fill="black"/>
<path opacity="0.7" d="M37.6614 35.9204H17.3496V56.2403H37.6614V35.9204Z" fill="black"/>
<path fill-rule="evenodd" clip-rule="evenodd" d="M60.1428 36.5779C57.2931 36.5779 54.8469 38.2432 53.5773 40.9783V36.7444L46.1455 37.9666V59.7768H53.5773V44.5066C54.466 41.8082 56.4975 39.9904 58.9973 39.8916C58.7237 40.381 58.5845 40.9342 58.5938 41.4948C58.5938 43.4255 60.0441 44.8029 62.067 44.8029C62.5015 44.8153 62.9339 44.7371 63.3365 44.5733C63.7392 44.4096 64.1034 44.1638 64.406 43.8517C64.7112 43.5412 64.951 43.1726 65.1114 42.7678C65.2718 42.363 65.3495 41.9302 65.34 41.4948C65.3661 40.8336 65.2525 40.1742 65.0065 39.5599C64.7605 38.9456 64.3876 38.3902 63.9123 37.9299C62.9474 37.0182 61.6777 36.5779 60.1428 36.5779Z" fill="white"/>
<path fill-rule="evenodd" clip-rule="evenodd" d="M79.4069 46.6743L86.3223 36.7839H82.8322L77.8015 44.0888L73.3577 36.7839H65.3701L73.1828 49.4094L66.1093 59.5905H69.6192L74.7543 52.0175L79.4069 59.5905H87.3465L79.4069 46.6743Z" fill="white"/>
<path fill-rule="evenodd" clip-rule="evenodd" d="M96.4015 59.5904V36.5552L88.9697 37.7802V59.5904H96.4015Z" fill="white"/>
<path opacity="0.5" fill-rule="evenodd" clip-rule="evenodd" d="M92.7984 35.0453C93.3122 35.0617 93.8238 34.9716 94.3011 34.7807C94.7784 34.5898 95.2111 34.3022 95.5719 33.936C95.9386 33.5602 96.2248 33.1136 96.413 32.6234C96.6012 32.1333 96.6875 31.6098 96.6666 31.0852C96.6848 30.5676 96.5971 30.0517 96.4088 29.5693C96.2206 29.0868 95.9358 28.6479 95.5719 28.2795C95.2126 27.91 94.7806 27.6189 94.3033 27.4246C93.826 27.2303 93.3136 27.1369 92.7984 27.1505C91.7078 27.1233 90.6508 27.5293 89.8584 28.2795C89.4785 28.6389 89.1789 29.0747 88.9795 29.5583C88.7802 30.0419 88.6854 30.5623 88.7016 31.0852C88.6826 31.6151 88.7758 32.143 88.9752 32.6344C89.1746 33.1257 89.4756 33.5693 89.8584 33.936C90.6534 34.6798 91.7104 35.0786 92.7984 35.0453Z" fill="white"/>
<path fill-rule="evenodd" clip-rule="evenodd" d="M114.207 36.375C112.6 36.3593 111.017 36.7569 109.608 37.5294C108.259 38.2473 107.122 39.3061 106.31 40.6004V36.5556L98.8779 37.7806V59.5908H106.31V43.9536C107.314 41.673 109.252 40.2052 111.287 40.2052C113.157 40.2052 114.517 41.673 114.517 43.7391V59.5908H121.949V43.869C121.977 42.8706 121.795 41.8775 121.416 40.9538C121.036 40.03 120.467 39.1962 119.746 38.506C118.278 37.0891 116.432 36.3787 114.207 36.375Z" fill="white"/>
<path fill-rule="evenodd" clip-rule="evenodd" d="M135.114 26.2922C132.377 26.2922 130.106 27.0769 128.252 28.6265C126.399 30.1761 125.493 32.1463 125.493 34.4665V36.7838H122.841V39.248H125.493V59.5904H132.911V39.248H137.524V36.7838H132.911V33.8709C132.863 32.6562 133.279 31.4688 134.073 30.5487C134.451 30.1209 134.912 29.775 135.428 29.5323C135.944 29.2896 136.505 29.1552 137.075 29.1374C136.681 29.6815 136.471 30.337 136.474 31.0088C136.468 31.4165 136.551 31.8206 136.716 32.1933C136.881 32.5661 137.125 32.8986 137.431 33.1681C137.732 33.464 138.09 33.6958 138.483 33.8495C138.877 34.0033 139.297 34.0759 139.719 34.0629C140.116 34.0722 140.51 33.9996 140.878 33.8495C141.245 33.6994 141.578 33.4752 141.855 33.1907C142.14 32.9049 142.363 32.564 142.512 32.1889C142.661 31.8138 142.732 31.4123 142.721 31.0088C142.721 29.6709 141.984 28.5616 140.54 27.6471C139.095 26.7326 137.281 26.2922 135.114 26.2922Z" fill="white"/>
<path fill-rule="evenodd" clip-rule="evenodd" d="M156.874 50.5242C156.434 50.5133 155.997 50.5903 155.587 50.7507C155.178 50.9111 154.805 51.1518 154.49 51.4585C154.169 51.7495 153.914 52.1053 153.74 52.5023C153.567 52.8994 153.48 53.3286 153.485 53.7618C153.467 54.3061 153.598 54.845 153.865 55.3199C154.131 55.7947 154.523 56.1872 154.997 56.4545C154.073 56.8866 153.061 57.0973 152.041 57.0698C150.943 57.086 149.853 56.8945 148.827 56.5053V59.9461C149.174 59.9687 149.527 59.9771 149.882 59.9771C152.687 59.9771 155.065 59.3759 157.049 58.1763C159.032 56.9767 160.006 55.5061 160.006 53.7505C160.014 53.3253 159.937 52.9028 159.781 52.5074C159.624 52.112 159.391 51.7517 159.094 51.4472C158.808 51.1476 158.463 50.9108 158.081 50.7519C157.699 50.593 157.288 50.5155 156.874 50.5242ZM148.827 48.1758H160.271C160.271 44.7887 159.202 41.9736 157.066 39.7306C154.913 37.4725 152.201 36.3689 148.926 36.3689H148.827V38.8217H148.974C151.397 38.8217 153.025 41.3621 153.268 45.7145H148.835L148.827 48.1758ZM148.827 56.5166C146.028 55.4045 144.523 52.6242 144.313 48.1758H148.827V45.7258H144.397C144.572 43.6559 145.069 41.9934 145.887 40.7383C146.677 39.5274 147.653 38.8838 148.835 38.8358V36.383C145.45 36.4056 142.589 37.512 140.258 39.7447C137.928 41.9774 136.714 44.8 136.714 48.1448C136.681 49.7392 136.996 51.3217 137.638 52.7814C138.28 54.2412 139.233 55.543 140.43 56.5956C142.67 58.6505 145.472 59.7795 148.835 59.9828L148.827 56.5166Z" fill="white"/>
<path fill-rule="evenodd" clip-rule="evenodd" d="M175.803 36.3801C172.953 36.3801 170.504 38.0455 169.237 40.7834V36.5495L161.806 37.7745V59.5847H169.237V44.3145C170.135 41.6104 172.155 39.7983 174.649 39.6939C174.377 40.1849 174.238 40.7386 174.246 41.2999C174.246 43.2306 175.699 44.6052 177.719 44.6052C178.153 44.6182 178.585 44.5407 178.988 44.3774C179.391 44.2141 179.755 43.9687 180.058 43.6568C180.363 43.3462 180.603 42.9777 180.764 42.573C180.925 42.1682 181.003 41.7354 180.994 41.2999C181.021 40.6384 180.907 39.9788 180.66 39.3645C180.414 38.7501 180.04 38.1948 179.564 37.735C178.599 36.8205 177.338 36.3801 175.803 36.3801Z" fill="white"/>
</g>
<defs>
<clipPath id="clip0_229_4453">
<rect width="181" height="60" fill="white"/>
</clipPath>
</defs>
</svg>
